<?xml version="1.0" standalone="no"?><!DOCTYPE svg PUBLIC "-//W3C//DTD SVG 1.1//EN" "http://www.w3.org/Graphics/SVG/1.1/DTD/svg11.dtd"><svg t="1741504748283" class="icon" viewBox="0 0 1024 1024" version="1.1" xmlns="http://www.w3.org/2000/svg" p-id="33450" xmlns:xlink="http://www.w3.org/1999/xlink" width="200" height="200"><path d="M705.888 178.24c99.952 0 179.648 89.456 179.648 198.32 0 45.888-14.24 89.312-39.328 123.92l-4.624 6.08 2.16 1.392c79.04 52.048 130.048 146.32 132.176 251.152l0.08 6.848v50.8a28.96 28.96 0 0 1-26.096 28.88l-2.784 0.128H849.92c-15.408 0-28.096-12.144-28.848-27.616a28.96 28.96 0 0 1 26.064-30.288l2.784-0.128h68.32v-21.76c0-98.912-52.592-186.128-130.56-223.248l-5.12-2.336a29.104 29.104 0 0 1-6.544-49.152c32.096-26.08 51.776-68.32 51.776-114.672 0-78.144-55.344-140.288-121.904-140.288-6.48 0-12.896 0.592-19.2 1.76a28.896 28.896 0 0 1-33.552-23.408 29.024 29.024 0 0 1 23.264-33.744c9.728-1.76 19.6-2.64 29.488-2.64zM423.328 96c-132.88 0-240.592 108.272-240.592 241.856l0.096 6.928a241.92 241.92 0 0 0 64.48 157.968l3.072 3.2-2.512 1.344C124.896 572.688 48 701.088 48 840.928v58.048A28.96 28.96 0 0 0 76.88 928h692.928a28.96 28.96 0 0 0 28.88-29.024v-58.048l-0.08-7.472c-2.688-137.136-79.184-262.016-199.792-326.16l-2.56-1.312 3.136-3.232a242.016 242.016 0 0 0 64.56-164.896C663.952 204.272 556.24 96 423.344 96z m0.672 64c74.816-0.016 140.896 50.528 162.928 124.64 22.016 74.112-5.168 154.448-67.024 198.08-18.096 12.784-14.656 41.424 5.904 49.216l5.952 2.336C645.296 580.288 720.016 693.744 720 820.112V848H128v-27.888c0-128.8 77.536-243.872 194.192-288.208 20.56-7.808 24-36.432 5.92-49.216-61.84-43.616-89.008-123.936-66.992-198.032C283.136 210.56 349.2 160 424 160z" fill="currentColor" p-id="33451"></path><path d="M444.592 541.024h-42.496c-13.184 0-24.704 8.976-27.968 21.824l-36.496 143.488a29.12 29.12 0 0 0 6.72 26.88l58.128 63.312a28.8 28.8 0 0 0 42.56-0.112l57.392-63.344a29.12 29.12 0 0 0 6.624-26.72l-36.496-143.504a28.896 28.896 0 0 0-27.968-21.824z m-21.248 62.656l25.92 101.888-25.712 28.32-26.096-28.432 25.888-101.776z" fill="currentColor" p-id="33452"></path></svg>