<?xml version="1.0" standalone="no"?><!DOCTYPE svg PUBLIC "-//W3C//DTD SVG 1.1//EN" "http://www.w3.org/Graphics/SVG/1.1/DTD/svg11.dtd"><svg t="1740316293228" class="icon" viewBox="0 0 1024 1024" version="1.1" xmlns="http://www.w3.org/2000/svg" p-id="16641" xmlns:xlink="http://www.w3.org/1999/xlink" width="200" height="200"><path d="M512 0c282.770286 0 512 229.229714 512 512s-229.229714 512-512 512S0 794.770286 0 512 229.229714 0 512 0z m-7.655619 234.73981h-7.070476l-7.143619 0.146285C340.358095 239.762286 219.428571 361.935238 219.428571 513.755429 219.428571 666.819048 344.234667 791.649524 497.273905 791.649524c150.674286-1.170286 273.968762-120.978286 277.77219-271.847619l0.097524-7.192381-0.195048-2.852572a19.504762 19.504762 0 0 0-5.705142-11.264 19.504762 19.504762 0 0 0-14.140953-5.90019 20.626286 20.626286 0 0 0-19.992381 20.016762v1.170286l-0.097524 6.631619c-3.535238 127.658667-109.251048 231.204571-237.714285 231.204571-130.681905 0-237.83619-107.129905-237.836191-237.83619 0-131.85219 107.129905-238.982095 237.81181-238.982096h7.070476l2.438095-0.146285a19.797333 19.797333 0 0 0 17.578667-19.870477 20.626286 20.626286 0 0 0-19.992381-20.016762z m71.826286 125.97638a21.723429 21.723429 0 0 0-14.140953 5.87581l-62.390857 65.926095-67.120762-64.731428-1.852952-1.682286a19.358476 19.358476 0 0 0-12.263619-4.217905 19.504762 19.504762 0 0 0-14.140953 5.900191c-8.240762 8.240762-8.240762 19.992381 0 28.233143l72.996572 72.996571v3.535238h-58.855619l-2.438095 0.170667c-9.557333 1.29219-17.578667 10.069333-17.578667 19.846095 0 10.605714 9.411048 20.016762 20.016762 20.016762h58.855619v40.033524h-58.855619l-2.438095 0.195047a22.016 22.016 0 0 0-11.702858 5.680762 19.504762 19.504762 0 0 0-5.875809 14.140953c0 4.705524 2.364952 10.605714 5.875809 14.140952a19.504762 19.504762 0 0 0 14.140953 5.851429h58.855619v58.88l0.195047 2.438095a22.016 22.016 0 0 0 5.705143 11.702857 19.504762 19.504762 0 0 0 14.140953 5.875809 21.723429 21.723429 0 0 0 14.116571-5.875809 19.504762 19.504762 0 0 0 5.87581-14.140952v-58.85562h60.050285l2.438096-0.195047a22.016 22.016 0 0 0 11.702857-5.705143 19.504762 19.504762 0 0 0 5.875809-14.140952 21.723429 21.723429 0 0 0-5.875809-14.116572 19.504762 19.504762 0 0 0-14.140953-5.875809h-60.050285v-40.033524h60.050285l2.438096-0.195048a22.016 22.016 0 0 0 11.702857-5.680762 19.504762 19.504762 0 0 0 5.875809-14.140952 21.723429 21.723429 0 0 0-5.875809-14.140952 19.504762 19.504762 0 0 0-14.140953-5.851429h-60.050285v-1.194667l72.996571-76.531809 1.657905-1.950476a21.942857 21.942857 0 0 0 4.242286-12.190477 21.723429 21.723429 0 0 0-5.900191-14.116571 21.723429 21.723429 0 0 0-14.140952-5.87581z m209.554285-128.341333c-42.374095 4.705524-98.889143 8.240762-168.350476 11.776 2.364952 8.240762 4.705524 16.481524 5.87581 24.722286l63.585524-3.535238v23.552l-67.096381 4.705524 2.340571 24.722285 63.585524-4.705524v23.552l-75.337143 5.87581 3.510857 24.746667 72.996572-5.900191v18.846476c0 22.357333 10.605714 32.963048 30.622476 32.963048h40.009143c12.970667 0 23.552-2.364952 30.622476-7.070476 7.070476-4.705524 11.776-17.65181 15.311238-41.20381-7.070476-2.364952-15.311238-4.705524-24.722286-9.411047L804.571429 353.645714l-1.170286-24.722285-87.137524 7.070476v-23.552l76.556191-4.705524-2.364953-24.722286-75.361524 4.705524v-23.552l78.872381-7.070476z m-9.411047 123.611429c-1.170286 15.311238-3.535238 23.552-7.070476 27.087238-2.340571 3.535238-8.240762 4.705524-16.481524 4.705524h-22.357334c-10.605714 0-15.311238-4.705524-14.140952-16.481524v-10.581334z" fill="#46A2FE" p-id="16642"></path></svg>