<?xml version="1.0" standalone="no"?><!DOCTYPE svg PUBLIC "-//W3C//DTD SVG 1.1//EN" "http://www.w3.org/Graphics/SVG/1.1/DTD/svg11.dtd"><svg t="1740315839870" class="icon" viewBox="0 0 1024 1024" version="1.1" xmlns="http://www.w3.org/2000/svg" p-id="2506" xmlns:xlink="http://www.w3.org/1999/xlink" width="200" height="200"><path d="M512 512m-512 0a512 512 0 1 0 1024 0 512 512 0 1 0-1024 0Z" fill="#DBE3FA" p-id="2507"></path><path d="M513.109333 461.866667a76.8 76.8 0 1 1 76.8 76.8 76.8 76.8 0 0 1-76.8-76.8m248.021334-112.810667a43.648 43.648 0 0 0-42.922667-43.776c-0.810667-0.042667-76.629333-2.816-133.888-2.816-65.92 0-71.850667 3.2-79.018667 10.325333l-101.930666 101.973334-130.816 130.901333a44.074667 44.074667 0 0 0 0 62.208l185.984 186.112a43.818667 43.818667 0 0 0 31.189333 12.8 43.306667 43.306667 0 0 0 30.933333-12.8l145.749334-145.493333 87.210666-87.296c7.68-7.68 14.933333-14.933333 7.552-212.138667" fill="#555FE8" p-id="2508"></path><path d="M597.333333 469.333333m-85.333333 0a85.333333 85.333333 0 1 0 170.666667 0 85.333333 85.333333 0 1 0-170.666667 0Z" fill="#FFFFFF" p-id="2509"></path></svg>