<?xml version="1.0" standalone="no"?><!DOCTYPE svg PUBLIC "-//W3C//DTD SVG 1.1//EN" "http://www.w3.org/Graphics/SVG/1.1/DTD/svg11.dtd"><svg t="1740316459930" class="icon" viewBox="0 0 1024 1024" version="1.1" xmlns="http://www.w3.org/2000/svg" p-id="21492" xmlns:xlink="http://www.w3.org/1999/xlink" width="200" height="200"><path d="M0 0h1024v1024H0z" fill="#FFFFFF" p-id="21493"></path><path d="M384 162.909091h349.090909a93.090909 93.090909 0 0 1 93.090909 93.090909v418.909091a186.181818 186.181818 0 0 1-186.181818 186.181818H290.909091a93.090909 93.090909 0 0 1-93.090909-93.090909V349.090909a186.181818 186.181818 0 0 1 186.181818-186.181818z" fill="#23C588" p-id="21494"></path><path d="M433.454545 674.024727a52.363636 52.363636 0 1 0-52.363636-52.363636 52.421818 52.421818 0 0 0 52.363636 52.363636m0 46.545455a98.909091 98.909091 0 1 1 98.909091-98.909091 98.909091 98.909091 0 0 1-98.909091 98.909091z" fill="#FFFFFF" p-id="21495"></path><path d="M672.616727 361.611636H351.371636a23.272727 23.272727 0 0 1-23.272727-23.272727 23.272727 23.272727 0 0 1 23.272727-23.272727h321.245091a23.272727 23.272727 0 0 1 23.272728 23.272727 23.272727 23.272727 0 0 1-23.272728 23.272727z" fill="#FFFFFF" p-id="21496"></path><path d="M553.344 466.338909H351.371636a23.272727 23.272727 0 0 1-23.272727-23.272727 23.272727 23.272727 0 0 1 23.272727-23.272727h201.972364a23.272727 23.272727 0 0 1 23.272727 23.272727 23.272727 23.272727 0 0 1-23.272727 23.272727z" fill="#FFFFFF" p-id="21497"></path></svg>