<?xml version="1.0" standalone="no"?><!DOCTYPE svg PUBLIC "-//W3C//DTD SVG 1.1//EN" "http://www.w3.org/Graphics/SVG/1.1/DTD/svg11.dtd"><svg t="1741503871022" class="icon" viewBox="0 0 1024 1024" version="1.1" xmlns="http://www.w3.org/2000/svg" p-id="8872" xmlns:xlink="http://www.w3.org/1999/xlink" width="200" height="200"><path d="M580.0448 817.2544L610.7136 870.4H307.2c-11.4688 0-20.8384-11.9296-20.8384-26.5728 0-14.592 9.3696-26.5216 20.8384-26.5216l272.8448-0.0512z m274.3296-323.3792a25.6 25.6 0 0 1 22.2208 12.8l91.392 158.3616a25.6 25.6 0 0 1 0 25.6l-91.392 158.3616a25.6 25.6 0 0 1-22.1696 12.8h-182.8864a25.6 25.6 0 0 1-22.1696-12.8l-91.4432-158.3616a25.6 25.6 0 0 1 0-25.6l91.4432-158.3616a25.6 25.6 0 0 1 22.1696-12.8h182.8864z m-14.7456 51.2h-153.2928l-76.6464 132.7616 76.6464 132.7616h153.2928l76.6464-132.7616-76.6464-132.7616z m-42.3936 49.9712a89.6 89.6 0 1 1-68.5568 165.5808 89.6 89.6 0 0 1 68.608-165.5808zM804.0448 153.6C840.704 153.6 870.4 183.296 870.4 219.9552v232.2432h-53.1456l0.0512-232.2432a13.312 13.312 0 0 0-13.312-13.2608H220.0064a13.312 13.312 0 0 0-13.2608 13.312v477.8496c0 7.3216 5.9392 13.2608 13.312 13.2608l298.7008-0.0512 30.6688 53.0944H219.9552A66.3552 66.3552 0 0 1 153.6 697.856V219.9552C153.6 183.296 183.296 153.6 219.9552 153.6h584.0896z m-41.0624 485.888a38.4 38.4 0 1 0 0 76.8 38.4 38.4 0 0 0 0-76.8z m-47.616-266.9568c10.5472 9.216 12.0832 25.088 3.4816 36.1984l-2.2016 2.56-40.6528 40.9088h-22.1184a32.0512 32.0512 0 0 0-25.088 12.032l-2.7136 3.9936-45.824 79.5136a26.5728 26.5728 0 0 1-33.024-3.7376l-2.048-2.3552-85.0944-109.4144-115.4048 112.128a26.5728 26.5728 0 0 1-35.072 1.6896l-2.4576-2.2528a26.5728 26.5728 0 0 1-1.7408-35.072l2.2528-2.4576 136.704-132.7616a26.5728 26.5728 0 0 1 37.2736 0.256l2.2016 2.5088 84.6336 108.9024 110.4896-111.3088a26.5728 26.5728 0 0 1 36.352-1.3312z" fill="#333333" p-id="8873"></path></svg>