<?xml version="1.0" standalone="no"?><!DOCTYPE svg PUBLIC "-//W3C//DTD SVG 1.1//EN" "http://www.w3.org/Graphics/SVG/1.1/DTD/svg11.dtd"><svg t="1704877457965" class="icon" viewBox="0 0 1024 1024" version="1.1" xmlns="http://www.w3.org/2000/svg" p-id="30861" xmlns:xlink="http://www.w3.org/1999/xlink" width="160" height="160"><path d="M13.799047 512.07906c0 275.141693 223.047096 498.200953 498.200953 498.200953 275.141693 0 498.200953-223.047096 498.200953-498.200953 0-275.153856-223.047096-498.200953-498.200953-498.200952-275.153856 0-498.200953 223.047096-498.200953 498.200952z m0 0" fill="#FF8B38" p-id="30862"></path><path d="M823.728326 814.283671c-1.082517-4.257088-4.317904-10.654884-9.718325-17.052679-2.18936-2.128544-5.40042-5.315279-9.718324-10.654883l-17.308104-17.05268-23.754553-22.38012c7.553291-10.654884 11.883358-22.380121 15.118745-35.163549 3.24755-12.783428 4.317904-25.566856 3.24755-38.350283-1.082517-12.783428-4.317904-25.566856-9.718324-37.304256-5.40042-11.725237-12.965874-23.438311-22.684199-33.035005-11.883358-10.654884-24.837069-19.181223-38.88546-24.520828-15.118745-5.315279-29.154973-8.52634-44.273717-8.52634-14.036228 0-29.154973 3.211061-43.203364 8.52634-15.118745 5.339605-28.084619 13.865944-38.88546 24.520828-11.907684 10.654884-20.543491 23.438311-25.943912 37.304256-5.40042 13.865944-8.635808 27.6954-8.635808 42.607371 0 13.865944 3.235387 28.777916 8.635808 42.643861 5.40042 13.829455 14.036228 26.649372 25.943912 37.304256 9.693998 10.654884 21.601682 18.098706 33.472876 23.438312 11.883358 5.339605 24.837069 8.52634 37.802944 9.596693 12.965874 1.046027 25.919586 0 38.88546-3.211061 12.953711-2.128544 24.837069-7.443823 36.720427-13.865945l43.203363 38.386773c3.24755 3.186735 6.482937 5.315279 10.800841 7.443823 3.24755 2.128544 8.635808 4.257088 11.883358 5.339605 3.271876 1.046027 7.58978 2.128544 11.907684 2.128544 4.317904 0 7.553291-1.082517 9.718324-4.257088 4.305741-4.257088 6.470774-8.52634 5.388258-13.865945zM729.743981 710.933732c-4.317904 7.443823-8.635808 14.911972-15.118745 21.309768-5.40042 6.397795-12.953711 11.725237-21.601682 14.911972-8.635808 3.211061-17.283778 5.339605-27.002102 5.339605-9.718324 0-18.354132-1.082517-27.002103-5.339605-8.635808-4.257088-16.201261-8.52634-22.684198-14.911972-6.482937-5.339605-11.883358-12.795591-15.118745-21.309768-3.24755-8.52634-5.424747-17.052679-5.424747-26.649372 0-9.608856 1.106843-18.123033 5.424747-26.649372 4.317904-7.443823 8.635808-14.911972 15.118745-21.309767 6.482937-6.385632 14.036228-11.7374 22.684198-14.911972 8.635808-3.211061 17.283778-5.339605 27.002103-5.339605 9.718324 0 18.354132 2.128544 27.002102 5.339605 7.553291 4.257088 15.118745 8.52634 21.601682 14.911972 6.482937 6.397795 11.871195 12.783428 15.118745 21.309767s5.40042 17.040516 5.40042 26.649372c0 9.596693-1.082517 18.123033-5.40042 26.649372z m0 0" fill="#FFFFFF" p-id="30863"></path><path d="M384.019765 289.79824v0.012163zM398.810106 691.302474c-13.841618 0-25.068168-11.22655-25.068168-25.068168 0-13.841618 11.22655-25.068168 25.068168-25.068168h135.022675c7.577617-21.820618 20.348882-41.220777 36.829895-56.716578H398.810106c-13.841618 0-25.056005-11.22655-25.056005-25.056005 0-13.841618 11.214387-25.056005 25.056005-25.056005h226.379788c9.523714 0 17.806792 5.315279 22.051717 13.136158 6.68971-0.973049 13.525377-1.483899 20.470513-1.483899 19.485301 0 38.058369 3.940847 54.952927 11.056266V339.618335c0-13.209137-5.254463-25.895259-14.595731-35.236527s-22.015228-14.595731-35.224364-14.595731H639.980235c4.354393 20.239414-0.681134 41.354571-13.683498 57.446364a68.498982 68.498982 0 0 1-53.298744 25.457388h-121.995986l-2.748862-0.048653a68.523308 68.523308 0 0 1-51.4013-26.479088 68.508713 68.508713 0 0 1-12.83208-56.363848h-32.864721c-27.512953 0-49.820095 22.307142-49.820095 49.820095v394.194206c0 13.209137 5.2423 25.883096 14.595731 35.236527 9.341268 9.341268 22.015228 14.595731 35.224364 14.595731h212.294908c-22.477426-24.41136-36.501491-56.740904-37.389398-92.330162H398.810106z m0-263.830001h226.379788v0.012163c13.841618 0 25.068168 11.22655 25.068168 25.056005 0 13.841618-11.22655 25.068168-25.068168 25.068168H398.810106c-13.841618 0-25.068168-11.22655-25.068168-25.068168 0-13.841618 11.22655-25.068168 25.068168-25.068168z" fill="#FFFFFF" p-id="30864"></path></svg>