<?xml version="1.0" standalone="no"?><!DOCTYPE svg PUBLIC "-//W3C//DTD SVG 1.1//EN" "http://www.w3.org/Graphics/SVG/1.1/DTD/svg11.dtd"><svg t="1704877600380" class="icon" viewBox="0 0 1024 1024" version="1.1" xmlns="http://www.w3.org/2000/svg" p-id="41208" xmlns:xlink="http://www.w3.org/1999/xlink" width="160" height="160"><path d="M869.7993875 63.58504502L155.50186045 63.58504502c-50.74956738 0-91.99589151 41.24544609-91.99589151 91.99589151l0 714.42404912c0 50.74956738 41.24544609 91.99501348 91.99589151 91.99501347l714.36078809 0c50.74956738 0 91.99501348-41.24544609 91.99501347-91.99501347L961.85766201 155.51767636C961.79615791 104.76723008 920.54807685 63.58504502 869.7993875 63.58504502zM788.44719834 318.85378877l-1.89959414 1.01393701-0.25392393 2.15351807C766.71432881 457.16393252 649.06073457 559.1067752 512.65018497 559.1067752c-136.40879268 0-254.06502276-101.94284268-273.64261729-237.08553135l-0.31630606-2.15351807-1.90135195-1.01393701c-13.55899131-8.04647724-21.66872959-21.66872959-21.66872959-36.621225 0-23.69572559 19.26128847-42.95701318 43.0202751-42.95701318 23.69572559 0 42.95701318 19.26128847 42.95701318 42.95701318 0 12.48179326-5.63903613 24.13943261-15.96643242 32.6919999l-2.02787403 1.58416699 0.44370703 2.5348421c18.05668945 113.3465581 114.42463506 195.58616221 229.10231514 195.5861622 114.67855898 0 211.04562656-82.30198623 229.10231514-195.5861622l0.44458594-2.47158106-1.96461299-1.58416699c-10.39065732-8.61670722-15.96643242-20.21108555-15.96643243-32.69287882 0-23.69572559 19.26128847-42.95701318 42.95701318-42.95701318l0 0 0 0 0 0c23.75898662 0 43.0202751 19.26040957 43.0202751 42.95701318C810.17918896 297.18593721 802.06945068 310.80818955 788.44719834 318.85378877z" fill="#d81e06" p-id="41209"></path></svg>